<svg version="1.1" viewBox="0.0 0.0 415.6010498687664 346.1994750656168" fill="none" stroke="none" stroke-linecap="square" stroke-miterlimit="10" xmlns:xlink="http://www.w3.org/1999/xlink" xmlns="http://www.w3.org/2000/svg"><clipPath id="p.0"><path d="m0 0l415.60104 0l0 346.19946l-415.60104 0l0 -346.19946z" clip-rule="nonzero"/></clipPath><g clip-path="url(#p.0)"><path fill="#000000" fill-opacity="0.0" d="m0 0l415.60104 0l0 346.19946l-415.60104 0z" fill-rule="evenodd"/><path fill="#e06666" d="m0 85.13834l26.728895 -26.728893l167.07764 0l26.728897 26.728893l0 231.80206l-26.728897 26.728882l-167.07764 0l-26.728895 -26.728882z" fill-rule="evenodd"/><path fill="#ff0000" d="m35.149605 112.24022l18.20863 -18.208626l113.81897 0l18.208633 18.208626l0 177.5985l-18.208633 18.208618l-113.81897 0l-18.20863 -18.208618z" fill-rule="evenodd"/><path fill="#3d85c6" d="m172.1767 42.68004l63.43953 -39.153427l64.58156 -3.0586455l48.42273 33.86753l19.279724 61.712437l-15.016815 73.02096l-45.30182 64.77109l-63.43953 39.153427l-64.58156 3.0586548l-48.422714 -33.867554l-19.279747 -61.712433l15.016823 -73.02096z" fill-rule="evenodd"/><path fill="#0000ff" d="m185.08621 61.660435l50.638855 -30.886164l51.74945 -2.0904121l38.996796 27.274923l15.787537 49.326733l-11.642029 58.161095l-35.961884 51.417145l-50.63887 30.886154l-51.749435 2.0904236l-38.99681 -27.274933l-15.787537 -49.326736l11.642044 -58.16108z" fill-rule="evenodd"/><path fill="#6aa84f" d="m335.75012 178.9564l79.01364 82.618515l-79.01364 82.61853z" fill-rule="evenodd"/><path fill="#6aa84f" d="m208.51659 344.19345l-79.01364 -82.61853l79.01364 -82.618515z" fill-rule="evenodd"/><path fill="#6aa84f" d="m335.75012 178.962l0 165.23703l-127.233536 0l0 -165.23703z" fill-rule="evenodd"/><path fill="#00ff00" d="m322.99084 209.54031l63.17746 52.03647l-63.17746 52.03647z" fill-rule="evenodd"/><path fill="#00ff00" d="m221.27586 313.61905l-63.17746 -52.03647l63.17746 -52.036453z" fill-rule="evenodd"/><path fill="#00ff00" d="m322.99582 209.54384l0 104.07295l-101.73242 0l0 -104.07295z" fill-rule="evenodd"/></g></svg>